<svg width="109" height="44" viewBox="0 0 109 44" fill="none" xmlns="http://www.w3.org/2000/svg"><path d="M23.064 27.568V34H0.84V0.735999H8.328V27.568H23.064ZM51.0229 21.328C51.0229 23.312 50.7349 25.136 50.1589 26.8C49.5829 28.432 48.7509 29.84 47.6629 31.024C46.5749 32.176 45.2629 33.072 43.7269 33.712C42.2229 34.352 40.5269 34.672 38.6389 34.672C36.7829 34.672 35.0869 34.352 33.5509 33.712C32.0469 33.072 30.7509 32.176 29.6629 31.024C28.5749 29.84 27.7269 28.432 27.1189 26.8C26.5109 25.136 26.2069 23.312 26.2069 21.328C26.2069 19.344 26.5109 17.536 27.1189 15.904C27.7589 14.272 28.6229 12.88 29.7109 11.728C30.8309 10.576 32.1429 9.68 33.6469 9.04C35.1829 8.4 36.8469 8.08 38.6389 8.08C40.4629 8.08 42.1269 8.4 43.6309 9.04C45.1669 9.68 46.4789 10.576 47.5669 11.728C48.6549 12.88 49.5029 14.272 50.1109 15.904C50.7189 17.536 51.0229 19.344 51.0229 21.328ZM43.7269 21.328C43.7269 19.12 43.2789 17.392 42.3829 16.144C41.5189 14.864 40.2709 14.224 38.6389 14.224C37.0069 14.224 35.7429 14.864 34.8469 16.144C33.9509 17.392 33.5029 19.12 33.5029 21.328C33.5029 23.536 33.9509 25.296 34.8469 26.608C35.7429 27.888 37.0069 28.528 38.6389 28.528C40.2709 28.528 41.5189 27.888 42.3829 26.608C43.2789 25.296 43.7269 23.536 43.7269 21.328ZM62.6591 20.56C62.6591 24.56 64.2751 26.56 67.5071 26.56C68.2431 26.56 68.9311 26.464 69.5711 26.272C70.2111 26.08 70.7551 25.856 71.2031 25.6V14.176C70.8511 14.112 70.4351 14.064 69.9551 14.032C69.4751 13.968 68.9151 13.936 68.2751 13.936C66.3871 13.936 64.9791 14.56 64.0511 15.808C63.1231 17.056 62.6591 18.64 62.6591 20.56ZM78.3551 30.832C78.3551 34.96 77.2991 38.016 75.1871 40C73.1071 42.016 69.8751 43.024 65.4911 43.024C63.9551 43.024 62.4191 42.88 60.8831 42.592C59.3471 42.336 57.9231 41.984 56.6111 41.536L57.8591 35.536C58.9791 35.984 60.1471 36.336 61.3631 36.592C62.6111 36.848 64.0191 36.976 65.5871 36.976C67.6351 36.976 69.0751 36.528 69.9071 35.632C70.7711 34.736 71.2031 33.584 71.2031 32.176V31.264C70.4351 31.616 69.6351 31.888 68.8031 32.08C68.0031 32.24 67.1231 32.32 66.1631 32.32C62.6751 32.32 60.0031 31.296 58.1471 29.248C56.2911 27.168 55.3631 24.272 55.3631 20.56C55.3631 18.704 55.6511 17.024 56.2271 15.52C56.8031 13.984 57.6351 12.672 58.7231 11.584C59.8431 10.496 61.2031 9.664 62.8031 9.088C64.4031 8.48 66.2111 8.176 68.2271 8.176C69.0911 8.176 69.9711 8.224 70.8671 8.32C71.7951 8.384 72.7071 8.48 73.6031 8.608C74.4991 8.736 75.3471 8.896 76.1471 9.088C76.9791 9.248 77.7151 9.424 78.3551 9.616V30.832ZM108.679 21.328C108.679 23.312 108.391 25.136 107.815 26.8C107.239 28.432 106.407 29.84 105.319 31.024C104.231 32.176 102.919 33.072 101.383 33.712C99.8791 34.352 98.1831 34.672 96.2951 34.672C94.4391 34.672 92.7431 34.352 91.2071 33.712C89.7031 33.072 88.4071 32.176 87.3191 31.024C86.2311 29.84 85.3831 28.432 84.7751 26.8C84.1671 25.136 83.8631 23.312 83.8631 21.328C83.8631 19.344 84.1671 17.536 84.7751 15.904C85.4151 14.272 86.2791 12.88 87.3671 11.728C88.4871 10.576 89.7991 9.68 91.3031 9.04C92.8391 8.4 94.5031 8.08 96.2951 8.08C98.1191 8.08 99.7831 8.4 101.287 9.04C102.823 9.68 104.135 10.576 105.223 11.728C106.311 12.88 107.159 14.272 107.767 15.904C108.375 17.536 108.679 19.344 108.679 21.328ZM101.383 21.328C101.383 19.12 100.935 17.392 100.039 16.144C99.1751 14.864 97.9271 14.224 96.2951 14.224C94.6631 14.224 93.3991 14.864 92.5031 16.144C91.6071 17.392 91.1591 19.12 91.1591 21.328C91.1591 23.536 91.6071 25.296 92.5031 26.608C93.3991 27.888 94.6631 28.528 96.2951 28.528C97.9271 28.528 99.1751 27.888 100.039 26.608C100.935 25.296 101.383 23.536 101.383 21.328Z" fill="#fff"/></svg>