<svg width="17" height="18" viewBox="0 0 17 18" fill="none" xmlns="http://www.w3.org/2000/svg"><circle cx="8.5" cy="9" r="8.5" fill="#FFCF2D"/><path d="M6.168 11.612C5.26667 11.612 4.57867 11.3613 4.104 10.86C3.63467 10.3587 3.4 9.64667 3.4 8.724C3.4 8.26533 3.472 7.85733 3.616 7.5C3.76 7.13733 3.95733 6.83333 4.208 6.588C4.45867 6.33733 4.75733 6.148 5.104 6.02C5.45067 5.892 5.82667 5.828 6.232 5.828C6.46667 5.828 6.68 5.84667 6.872 5.884C7.064 5.916 7.232 5.956 7.376 6.004C7.52 6.04667 7.64 6.092 7.736 6.14C7.832 6.188 7.90133 6.22533 7.944 6.252L7.584 7.26C7.41333 7.16933 7.21333 7.092 6.984 7.028C6.76 6.964 6.504 6.932 6.216 6.932C6.024 6.932 5.83467 6.964 5.648 7.028C5.46667 7.092 5.304 7.196 5.16 7.34C5.02133 7.47867 4.90933 7.66 4.824 7.884C4.73867 8.108 4.696 8.38 4.696 8.7C4.696 8.956 4.72267 9.196 4.776 9.42C4.83467 9.63867 4.92533 9.828 5.048 9.988C5.176 10.148 5.34133 10.276 5.544 10.372C5.74667 10.4627 5.992 10.508 6.28 10.508C6.46133 10.508 6.624 10.4973 6.768 10.476C6.912 10.4547 7.04 10.4307 7.152 10.404C7.264 10.372 7.36267 10.3373 7.448 10.3C7.53333 10.2627 7.61067 10.228 7.68 10.196L8.024 11.196C7.848 11.3027 7.6 11.3987 7.28 11.484C6.96 11.5693 6.58933 11.612 6.168 11.612ZM10.4515 5.892C11.2835 5.892 11.9208 6.04133 12.3635 6.34C12.8062 6.63333 13.0275 7.092 13.0275 7.716C13.0275 8.10533 12.9368 8.42267 12.7555 8.668C12.5795 8.908 12.3235 9.09733 11.9875 9.236C12.0995 9.37467 12.2168 9.53467 12.3395 9.716C12.4622 9.892 12.5822 10.0787 12.6995 10.276C12.8222 10.468 12.9395 10.6707 13.0515 10.884C13.1635 11.092 13.2675 11.2973 13.3635 11.5H11.9635C11.8622 11.3187 11.7582 11.1347 11.6515 10.948C11.5502 10.7613 11.4435 10.58 11.3315 10.404C11.2248 10.228 11.1182 10.0627 11.0115 9.908C10.9048 9.748 10.7982 9.604 10.6915 9.476H10.0755V11.5H8.8275V6.036C9.0995 5.98267 9.3795 5.94533 9.6675 5.924C9.96083 5.90267 10.2222 5.892 10.4515 5.892ZM10.5235 6.956C10.4328 6.956 10.3502 6.95867 10.2755 6.964C10.2062 6.96933 10.1395 6.97467 10.0755 6.98V8.484H10.4275C10.8968 8.484 11.2328 8.42533 11.4355 8.308C11.6382 8.19067 11.7395 7.99067 11.7395 7.708C11.7395 7.436 11.6355 7.244 11.4275 7.132C11.2248 7.01467 10.9235 6.956 10.5235 6.956Z" fill="#000"/></svg>